PathFileType	4	(X/Y/Z)	C:\Users\WrightLab\Desktop\Jo\P2_Trial35.trc
DataRate	CameraRate	NumFrames	NumMarkers	Units	OrigDataRate	OrigDataStartFrame	OrigNumFrames
100.00	100.00	      19	19	mm	100.00	1005	      1148
Frame#	Time	Headset_Front			Headset_Back			Headset_Left			Headset_Right			Left_Shoulder			Right_Shoulder			Sternum			C7			Left Elbow			Right Elbow			Left Wrist			Right Wrist			Left ASIS			Right ASIS			S2			Left Knee			Right Knee			Left Ankle			Right Ankle			
		X1	Y1	Z1	X2	Y2	Z2	X3	Y3	Z3	X4	Y4	Z4	X5	Y5	Z5	X6	Y6	Z6	X7	Y7	Z7	X8	Y8	Z8	X9	Y9	Z9	X10	Y10	Z10	X11	Y11	Z11	X12	Y12	Z12	X13	Y13	Z13	X14	Y14	Z14	X15	Y15	Z15	X16	Y16	Z16	X17	Y17	Z17	X18	Y18	Z18	X19	Y19	Z19	

1005	10.040	-934.30878	1640.00208	-630.93414	-831.79761	1420.50574	-828.98474	-991.08856	1544.49792	-763.60718				-1103.72656	1390.11328	-660.14246	-783.95593	1382.79907	-588.45490	-927.14392	1274.25500	-695.31366	-955.76428	1373.14160	-513.26068	-1213.24316	1087.86304	-647.82898	-682.57996	1057.37549	-590.19336	-1204.35437	1073.48926	-816.63281	-635.49310	831.51697	-700.25067	-836.31537	957.06946	-730.53973	-961.63245	982.34198	-767.55963	-999.11682	887.00970	-511.33249	-1051.41663	414.28799	-771.64056	-813.11096	481.45917	-480.53403				-899.38660	98.20390	-312.64877	
1006	10.050	-935.29456	1640.87390	-640.19977	-775.86951	1487.40173	-701.61664	-989.89209	1545.78101	-774.13873				-1104.17517	1389.49548	-671.16168	-784.54407	1385.02600	-596.13763	-926.45282	1275.41296	-704.37604	-958.38495	1373.51160	-522.77588	-1212.89612	1086.97864	-661.14026	-683.89001	1058.58911	-593.73236				-633.27252	830.29932	-697.63855	-833.49188	959.64319	-739.67981	-957.46478	984.70013	-778.22937	-1000.67871	887.57233	-524.26624	-1056.83826	418.18170	-786.30347	-810.98108	482.11960	-492.24216				-904.21210	105.68777	-319.01077	
1007	10.060	-936.37756	1641.80469	-648.95520				-988.66705	1547.10059	-784.29816				-1104.48584	1389.63989	-682.21649	-785.25549	1387.06348	-601.72473	-925.60486	1276.58325	-714.01117	-959.68756	1374.10596	-532.08093	-1212.49780	1086.23914	-674.51642	-684.86115	1061.61108	-597.00635	-1200.29980	1075.00940	-844.00305	-631.80157	830.23822	-695.08911	-830.43591	962.47333	-748.69379	-953.25275	987.87500	-788.62628	-1002.64014	887.65381	-537.08344	-1056.53113	417.86972	-799.31500	-810.14459	481.95956	-503.48441				-908.77087	114.02004	-326.64771	
1008	10.070							-987.44244	1548.34363	-794.33313				-1103.54883	1389.29028	-692.81152	-785.82892	1388.96948	-607.44000	-924.30878	1278.33289	-723.70258	-961.00061	1375.31812	-541.22650	-1211.68823	1086.43811	-688.28235	-688.60602	1062.30066	-601.06097				-630.44873	830.68787	-691.43701				-949.49371	990.74390	-797.87378	-1002.09418	888.47101	-547.25128	-1059.44238	419.75766	-813.20715	-808.07959	483.28235	-517.26465				-879.80658	772.19171	-304.21817	
1009	10.080	-938.66779	1643.95435	-667.04608				-986.14313	1549.82166	-804.34900				-1103.38098	1390.91162	-703.88538	-786.18439	1391.09546	-613.56561	-923.14191	1279.82214	-732.20526	-963.15814	1376.69812	-550.69617	-1210.80310	1086.57886	-701.96362	-688.85547	1064.35388	-603.31177				-629.17719	831.83496	-689.28510				-945.90045	994.04877	-807.26062	-1003.40900	889.07214	-559.23480	-1061.88464	421.80481	-826.56189	-806.31580	483.57248	-529.89801	-645.07123	697.10815	-784.12177	-877.34528	771.68176	-303.62741	
1010	10.090	-939.69019	1645.35217	-676.12708				-984.91833	1550.75073	-814.05713				-1102.39636	1390.83472	-714.29443	-785.57391	1393.92920	-623.03131	-921.57495	1281.75549	-741.33215	-962.87335	1377.60010	-559.61310	-1209.56958	1087.50366	-716.12170	-689.85638	1067.63379	-605.95154				-628.37988	832.22528	-686.06970				-942.53851	997.29187	-816.17322	-1004.19794	890.58630	-569.01819	-1064.04626	423.85107	-840.11615	-804.55072	484.32266	-542.35931				-875.04504	770.85992	-301.73297	
1011	10.100	-940.51300	1646.57556	-684.76874				-983.43402	1552.12524	-823.73132				-1101.38916	1391.74402	-724.76740	-785.77509	1395.79443	-627.19885	-919.86353	1283.34338	-750.27228	-964.02161	1379.34363	-568.76563	-1208.41724	1088.18872	-729.70313	-689.34277	1069.18896	-609.87689				-626.65594	833.37317	-682.72937				-939.60242	999.90002	-824.76624	-1006.86707	891.12524	-580.80664	-1066.71777	425.55896	-853.47308	-801.72235	484.59756	-555.47327	-906.24030	148.56915	-398.70248	-872.58020	771.31427	-302.65683	
1012	10.110	-941.12775	1647.70654	-693.17010				-981.74402	1553.60168	-833.39636				-1100.28723	1392.97852	-735.03534	-784.57916	1398.01050	-634.44678	-917.86932	1285.05688	-758.66772	-964.56403	1380.59644	-577.86047	-1207.13574	1089.29407	-743.58478	-689.62708	1071.08911	-612.18585				-625.62158	833.89960	-679.66571	-826.95508	965.15143	-792.62909	-936.74042	1002.24951	-833.60895	-1008.02863	892.06079	-590.50342	-1067.89136	425.58026	-866.14850	-799.12732	484.94492	-569.39832	-921.30847	133.78989	-380.69083	-870.40460	771.51215	-303.58173	
1013	10.120	-941.12164	1649.45667	-702.05676				-979.81073	1554.94836	-842.06543				-1098.60193	1394.11646	-745.45264				-915.83673	1286.86584	-767.20294	-965.03076	1382.56458	-586.49811	-1205.62708	1090.49512	-757.14398	-689.71698	1073.73987	-613.97870				-624.28894	835.09424	-675.36249	-826.60181	966.35516	-795.66949	-934.20361	1003.72247	-841.99603	-1008.43030	893.93030	-598.41650	-1069.78186	426.05539	-879.74255	-796.24756	484.61697	-583.26813	-912.16364	140.32504	-395.23615	-639.46503	704.71313	-780.07581	
1014	10.130	-940.74005	1650.74438	-710.53235				-977.37354	1556.78735	-851.58948				-1096.93445	1395.71716	-756.69165				-913.60468	1288.62903	-775.19135	-965.23718	1383.98499	-594.96271	-1203.63525	1092.39819	-771.61963	-688.93359	1074.91663	-616.78119				-622.57971	835.87506	-672.83429	-824.65295	967.86249	-801.57593	-931.53070	1004.56891	-850.48065	-1009.57404	894.11841	-608.81805	-1071.41028	425.98965	-893.33179	-794.93805	484.35361	-598.55762	-884.70972	161.01352	-420.62280				
1015	10.140	-939.71826	1652.61987	-718.90540	-770.36780	1501.44141	-757.71558	-974.50281	1558.91992	-860.62061				-1095.03857	1397.29968	-766.93756	-780.96216	1403.99829	-648.27069	-911.34326	1290.25500	-783.32227	-966.02319	1385.92041	-604.44226	-1201.69238	1094.03528	-784.87714	-688.45441	1076.63879	-618.94232				-622.16089	836.84113	-669.12634	-822.10669	969.75836	-807.59930	-928.75757	1005.06287	-858.70221	-1010.56561	895.45380	-618.58759	-1071.99158	426.19437	-906.90295	-792.03198	483.43591	-612.48480	-875.18463	166.95468	-434.34256				
1016	10.150	-938.40375	1654.06372	-726.90784	-768.53522	1502.90295	-763.64496	-971.21802	1561.14026	-869.67981				-1092.99939	1399.53357	-778.48987				-908.96326	1291.86462	-791.43103	-966.13110	1387.46936	-612.79474	-1199.30261	1096.29578	-798.97345	-688.64386	1078.22351	-620.87659	-1114.95642	986.77777	-667.07324	-620.76459	837.67816	-666.37634	-819.90131	971.14429	-814.49103	-925.64166	1005.64703	-867.17981	-1012.04022	896.50623	-628.32428	-1071.85547	425.94351	-921.37262	-789.46442	482.97858	-627.66180	-866.35254	173.93730	-450.54373				
1017	10.160	-936.57501	1655.60168	-734.88885				-967.63043	1563.58606	-878.57361				-1089.86755	1401.04480	-788.73322				-906.39069	1293.64819	-799.21771	-967.09442	1389.76453	-621.77142	-1196.80798	1098.52734	-812.25238	-688.48950	1080.16650	-622.01752	-1112.01636	988.44354	-676.55103	-620.24054	839.33093	-662.96857	-816.95154	971.45752	-820.50110	-922.33923	1006.23694	-875.33899	-1012.49249	898.40625	-637.22638	-1070.24158	426.17667	-935.63916	-784.89307	484.29379	-642.78754	-857.03302	180.68774	-465.72522	-645.66437	728.86731	-774.86066	
1018	10.170	-811.83490	1390.91565	-759.11621				-963.77246	1565.96912	-887.51337				-1086.98816	1402.70886	-800.13281				-903.88556	1294.85681	-806.92847	-967.37122	1391.24817	-631.43823	-1194.06067	1100.95752	-825.91125	-688.17365	1081.95081	-623.21606				-619.27094	839.91779	-659.66577	-814.47607	973.49622	-826.47217	-919.04358	1006.29852	-882.01001	-1011.06183	901.54633	-642.34869	-1067.37939	427.49588	-949.31403	-781.06714	484.46262	-657.31390	-848.14313	187.13167	-479.39886				
1019	10.180	-931.71729	1658.97913	-751.21259	-809.00116	1392.43079	-764.28992	-959.61670	1568.28442	-896.26337				-1084.09595	1404.65295	-811.27051				-901.30823	1296.11731	-814.72754	-967.34271	1393.34656	-640.42981	-1191.29797	1103.18457	-839.19458	-688.59424	1083.94763	-623.19635				-618.53699	841.63824	-657.77600	-811.75964	974.96906	-829.58118	-915.58679	1006.87170	-889.46576	-1012.03192	903.69031	-649.88904	-1063.24280	429.85547	-962.46906	-775.72260	486.19144	-673.09857	-839.68964	194.37177	-494.87082				
1020	10.190				-806.37970	1392.70056	-765.98279	-955.16565	1570.56409	-905.15320				-1081.73340	1407.23901	-822.73700				-898.73218	1297.06702	-821.85504	-967.96362	1395.15198	-649.56049	-1188.26111	1105.56543	-852.63940	-689.09570	1085.91296	-623.39453				-618.15405	843.74316	-655.24414	-808.79517	976.17859	-835.15112	-911.97333	1007.84735	-896.61975	-1012.68927	905.38385	-657.69751	-1058.28296	431.74500	-973.92120	-769.90271	489.15582	-688.26648	-833.02026	199.62367	-510.78680				
1021	10.200	-757.00012	1506.44702	-792.99115	-803.23517	1393.79822	-770.59393	-950.41833	1572.79553	-913.59174				-1078.54553	1408.91736	-834.06219				-895.95386	1298.44263	-829.19617	-969.42859	1397.62207	-658.68945	-1184.94031	1108.09888	-866.42432	-691.02838	1087.30273	-623.63666	-1099.93835	1152.08337	-1130.51440	-617.68524	845.04749	-652.32928	-806.77612	977.36029	-840.15198	-908.58209	1008.93115	-903.14465	-1012.28693	907.59998	-665.15100	-1052.14136	433.53571	-983.99799	-764.21021	493.26871	-702.75757	-824.53912	205.94908	-528.00006	-600.95074	733.73669	-752.91760	
1022	10.210	-922.32782	1663.13123	-774.92480	-800.41663	1394.18335	-772.92133	-945.53113	1574.72498	-922.27728				-1075.04993	1411.14783	-845.61029				-893.47406	1299.00952	-835.47736	-968.98096	1399.60095	-667.25073	-1181.61707	1110.43530	-879.53168	-690.12524	1089.37207	-626.36115	-1116.90210	1107.35950	-1038.30688	-617.40131	846.93817	-651.78540	-803.82172	977.69989	-846.18542	-905.21423	1010.30518	-910.01752	-1010.71228	909.16187	-672.03577	-1045.62695	435.34998	-993.19281	-757.70691	498.59302	-719.82959	-818.33112	212.10440	-543.55255				
1023	10.220	-918.87445	1664.29578	-782.89044				-940.60205	1576.45532	-930.55023				-1071.59094	1413.07800	-856.75922				-890.71216	1300.09143	-842.68286	-967.76025	1401.07434	-675.43256	-1178.10376	1112.77966	-893.16223	-691.10199	1090.81152	-627.08411	-1109.33020	1109.63232	-1050.24255	-616.88757	848.54028	-650.23877	-800.60406	978.39130	-851.95361				-1010.62744	911.00464	-679.27423	-1039.35400	435.87396	-999.69922	-752.72998	504.74255	-735.72223	-810.69617	218.28528	-562.99115				
